<svg width="400" height="400" viewBox="0 0 400 400" fill="none" xmlns="http://www.w3.org/2000/svg">
  <path d="M200 48 68 124v152l132 76 132-76V124zm0 304L76 276V124l124-72 124 72v152z" fill="#fff" stroke="#fff" stroke-width="4"/>
  <path d="M74 273V169l24.5 13.5v75L138 279l1-72.5 25 14.5v75l32.5 18v30zm0-141.5V161l33 19v74l24 14 1.5-72.5 38.5 21v75l25.5 14.5V202zm125.5-77L78 125l24.5 14.5 32.5-19 64.5 38 25-14.5-61.5-38 36.5-22 66 36.5L290 106z" fill="#000" stroke="#000"/>
  <path d="M135 129.5 110.5 144l89 51.5L322 125l-24.5-14.5-32 19-66-37.5-23 14 62 38-39 22.5zM204.5 344V202l89-51.5V180L229 216.5V261l64.5-35.5V254L229 291.5v38zM326 131.5l-24 14V183l-65.5 37.5v29L300 214l2 44-65.5 38v28.5L326 274z" fill="#000" stroke="#000"/>
</svg>
