<svg width="400" height="400" viewBox="0 0 400 400" fill="none" xmlns="http://www.w3.org/2000/svg">
  <mask id="a" maskUnits="userSpaceOnUse" x="66.627" y="45.895" width="267" height="309" fill="#000">
  <path fill="#fff" d="M66.627 45.895h267v309h-267z"/>
  <path d="m133.987 86.275-65.36 37.777v152.026l65.621 37.909L200 351.895l65.621-37.908 65.752-37.909V123.922l-65.36-37.778C230.065 65.359 200.392 48.366 200 48.366s-30.065 17.124-66.013 37.909m104.837-12.288c20.653 12.026 41.699 24.183 46.666 26.928l8.889 5.229-14.118 8.366c-7.843 4.575-14.64 8.366-15.032 8.366s-15.033-8.235-32.549-18.301c-17.386-10.196-32.419-18.3-33.334-18.04-3.398.916-33.333 18.824-32.941 19.74.131.653 14.249 9.15 31.373 18.954 16.993 9.934 30.849 18.17 30.849 18.562s-6.405 4.314-14.248 8.758l-14.248 8.105-28.497-16.34c-15.686-9.02-30.327-17.517-32.418-18.824l-4.053-2.483-16.209 9.411-16.34 9.543-14.77-8.497c-14.25-8.105-14.772-8.497-11.766-10.065 1.569-.915 29.804-17.255 62.484-36.34 32.68-18.954 60.131-34.64 61.046-34.64.784-.131 18.431 9.673 39.216 21.568m-5.883 34.118 32.157 18.692 15.686-9.15c8.628-5.098 16.209-9.15 16.602-9.15 2.222 0 29.281 16.34 28.366 16.993-.523.523-26.798 15.817-58.432 33.856-31.634 18.17-59.608 34.38-62.222 36.079l-4.706 3.006-46.144-26.666c-25.359-14.641-46.797-26.798-47.581-27.059-1.961-.784-1.961-.784 14.117-9.935l14.249-7.974 31.764 18.301c17.517 10.065 32.419 18.301 33.334 18.301 2.091 0 33.856-18.432 33.856-19.608 0-.654-14.118-9.15-31.373-19.085s-30.849-18.562-30.196-19.216c1.7-1.699 26.798-16.34 27.713-16.078.392 0 15.163 8.496 32.81 18.693M83.268 134.248c5.752 3.53 34.118 19.739 62.876 36.34l52.418 30.066.131 54.64c0 30.065-.392 54.379-.915 54.118-.654-.262-7.32-4.183-15.033-8.628l-14.118-8.235v-74.902l-16.339-9.542c-9.02-5.098-16.863-9.412-17.647-9.412-.785 0-1.308 13.072-1.308 36.732 0 20.131-.523 36.47-1.045 36.209-.523-.261-7.059-3.922-14.38-8.105l-13.333-7.843v-75.163l-16.34-9.281-16.34-9.281v-16.994c0-9.281.262-16.862.393-16.862.261 0 5.228 2.745 10.98 6.143m244.837 67.19-.654 73.333-16.34 9.412c-47.059 27.32-75.948 43.922-76.47 43.922-.393 0-.654-7.451-.654-16.732v-16.602l32.68-18.954 32.679-18.824v-20.13c0-17.778-.261-20-2.091-19.347-1.438.523-41.438 23.399-62.353 35.687-.523.261-.784-7.19-.654-16.602l.393-17.255 32.026-18.562 32.026-18.431.392-19.085.392-18.954 13.987-8.105c7.712-4.444 14.248-8.104 14.641-8.104.392 0 .392 32.941 0 73.333m-32.288-37.909-.392 17.255-32.026 18.432-32.026 18.3v20c0 10.981.522 20 1.176 20s14.771-7.973 31.503-17.647 30.85-17.647 31.242-17.647.654 7.451.523 16.602l-.261 16.732-31.765 18.431-31.765 18.431-.653 19.216-.654 19.085-14.379 8.235-14.379 8.366-.392-73.333c-.131-40.261.13-73.464.653-73.726.654-.13 21.7-12.287 46.798-26.928 25.228-14.64 46.013-26.666 46.405-26.797s.523 7.582.392 16.993M86.928 173.987l13.726 7.974v75.032l17.254 9.935c9.543 5.49 17.778 9.804 18.301 9.412s.784-17.124.654-37.124c-.131-20.131-.131-36.602.13-36.602.131 0 2.484 1.438 5.229 3.138 2.615 1.699 9.151 5.49 14.379 8.496l9.412 5.491v75.032l16.34 9.151 16.209 9.15.131 17.386v17.516l-4.314-2.615c-2.222-1.568-30.719-18.039-63.006-36.732l-58.824-33.986-.392-54.249c-.13-29.934 0-54.379.392-54.379s6.928 3.529 14.38 7.974"/>
  </mask>
  <path d="m133.987 86.275-65.36 37.777v152.026l65.621 37.909L200 351.895l65.621-37.908 65.752-37.909V123.922l-65.36-37.778C230.065 65.359 200.392 48.366 200 48.366s-30.065 17.124-66.013 37.909m104.837-12.288c20.653 12.026 41.699 24.183 46.666 26.928l8.889 5.229-14.118 8.366c-7.843 4.575-14.64 8.366-15.032 8.366s-15.033-8.235-32.549-18.301c-17.386-10.196-32.419-18.3-33.334-18.04-3.398.916-33.333 18.824-32.941 19.74.131.653 14.249 9.15 31.373 18.954 16.993 9.934 30.849 18.17 30.849 18.562s-6.405 4.314-14.248 8.758l-14.248 8.105-28.497-16.34c-15.686-9.02-30.327-17.517-32.418-18.824l-4.053-2.483-16.209 9.411-16.34 9.543-14.77-8.497c-14.25-8.105-14.772-8.497-11.766-10.065 1.569-.915 29.804-17.255 62.484-36.34 32.68-18.954 60.131-34.64 61.046-34.64.784-.131 18.431 9.673 39.216 21.568m-5.883 34.118 32.157 18.692 15.686-9.15c8.628-5.098 16.209-9.15 16.602-9.15 2.222 0 29.281 16.34 28.366 16.993-.523.523-26.798 15.817-58.432 33.856-31.634 18.17-59.608 34.38-62.222 36.079l-4.706 3.006-46.144-26.666c-25.359-14.641-46.797-26.798-47.581-27.059-1.961-.784-1.961-.784 14.117-9.935l14.249-7.974 31.764 18.301c17.517 10.065 32.419 18.301 33.334 18.301 2.091 0 33.856-18.432 33.856-19.608 0-.654-14.118-9.15-31.373-19.085s-30.849-18.562-30.196-19.216c1.7-1.699 26.798-16.34 27.713-16.078.392 0 15.163 8.496 32.81 18.693M83.268 134.248c5.752 3.53 34.118 19.739 62.876 36.34l52.418 30.066.131 54.64c0 30.065-.392 54.379-.915 54.118-.654-.262-7.32-4.183-15.033-8.628l-14.118-8.235v-74.902l-16.339-9.542c-9.02-5.098-16.863-9.412-17.647-9.412-.785 0-1.308 13.072-1.308 36.732 0 20.131-.523 36.47-1.045 36.209-.523-.261-7.059-3.922-14.38-8.105l-13.333-7.843v-75.163l-16.34-9.281-16.34-9.281v-16.994c0-9.281.262-16.862.393-16.862.261 0 5.228 2.745 10.98 6.143m244.837 67.19-.654 73.333-16.34 9.412c-47.059 27.32-75.948 43.922-76.47 43.922-.393 0-.654-7.451-.654-16.732v-16.602l32.68-18.954 32.679-18.824v-20.13c0-17.778-.261-20-2.091-19.347-1.438.523-41.438 23.399-62.353 35.687-.523.261-.784-7.19-.654-16.602l.393-17.255 32.026-18.562 32.026-18.431.392-19.085.392-18.954 13.987-8.105c7.712-4.444 14.248-8.104 14.641-8.104.392 0 .392 32.941 0 73.333m-32.288-37.909-.392 17.255-32.026 18.432-32.026 18.3v20c0 10.981.522 20 1.176 20s14.771-7.973 31.503-17.647 30.85-17.647 31.242-17.647.654 7.451.523 16.602l-.261 16.732-31.765 18.431-31.765 18.431-.653 19.216-.654 19.085-14.379 8.235-14.379 8.366-.392-73.333c-.131-40.261.13-73.464.653-73.726.654-.13 21.7-12.287 46.798-26.928 25.228-14.64 46.013-26.666 46.405-26.797s.523 7.582.392 16.993M86.928 173.987l13.726 7.974v75.032l17.254 9.935c9.543 5.49 17.778 9.804 18.301 9.412s.784-17.124.654-37.124c-.131-20.131-.131-36.602.13-36.602.131 0 2.484 1.438 5.229 3.138 2.615 1.699 9.151 5.49 14.379 8.496l9.412 5.491v75.032l16.34 9.151 16.209 9.15.131 17.386v17.516l-4.314-2.615c-2.222-1.568-30.719-18.039-63.006-36.732l-58.824-33.986-.392-54.249c-.13-29.934 0-54.379.392-54.379s6.928 3.529 14.38 7.974" fill="#fff"/>
  <path d="m133.987 86.275-65.36 37.777v152.026l65.621 37.909L200 351.895l65.621-37.908 65.752-37.909V123.922l-65.36-37.778C230.065 65.359 200.392 48.366 200 48.366s-30.065 17.124-66.013 37.909Zm104.837-12.288c20.653 12.026 41.699 24.183 46.666 26.928l8.889 5.229-14.118 8.366c-7.843 4.575-14.64 8.366-15.032 8.366s-15.033-8.235-32.549-18.301c-17.386-10.196-32.419-18.3-33.334-18.04-3.398.916-33.333 18.824-32.941 19.74.131.653 14.249 9.15 31.373 18.954 16.993 9.934 30.849 18.17 30.849 18.562s-6.405 4.314-14.248 8.758l-14.248 8.105-28.497-16.34c-15.686-9.02-30.327-17.517-32.418-18.824l-4.053-2.483-16.209 9.411-16.34 9.543-14.77-8.497c-14.25-8.105-14.772-8.497-11.766-10.065 1.569-.915 29.804-17.255 62.484-36.34 32.68-18.954 60.131-34.64 61.046-34.64.784-.131 18.431 9.673 39.216 21.568Zm-5.883 34.118 32.157 18.692 15.686-9.15c8.628-5.098 16.209-9.15 16.602-9.15 2.222 0 29.281 16.34 28.366 16.993-.523.523-26.798 15.817-58.432 33.856-31.634 18.17-59.608 34.38-62.222 36.079l-4.706 3.006-46.144-26.666c-25.359-14.641-46.797-26.798-47.581-27.059-1.961-.784-1.961-.784 14.117-9.935l14.249-7.974 31.764 18.301c17.517 10.065 32.419 18.301 33.334 18.301 2.091 0 33.856-18.432 33.856-19.608 0-.654-14.118-9.15-31.373-19.085s-30.849-18.562-30.196-19.216c1.7-1.699 26.798-16.34 27.713-16.078.392 0 15.163 8.496 32.81 18.693ZM83.268 134.248c5.752 3.53 34.118 19.739 62.876 36.34l52.418 30.066.131 54.64c0 30.065-.392 54.379-.915 54.118-.654-.262-7.32-4.183-15.033-8.628l-14.118-8.235v-74.902l-16.339-9.542c-9.02-5.098-16.863-9.412-17.647-9.412-.785 0-1.308 13.072-1.308 36.732 0 20.131-.523 36.47-1.045 36.209-.523-.261-7.059-3.922-14.38-8.105l-13.333-7.843v-75.163l-16.34-9.281-16.34-9.281v-16.994c0-9.281.262-16.862.393-16.862.261 0 5.228 2.745 10.98 6.143Zm244.837 67.19-.654 73.333-16.34 9.412c-47.059 27.32-75.948 43.922-76.47 43.922-.393 0-.654-7.451-.654-16.732v-16.602l32.68-18.954 32.679-18.824v-20.13c0-17.778-.261-20-2.091-19.347-1.438.523-41.438 23.399-62.353 35.687-.523.261-.784-7.19-.654-16.602l.393-17.255 32.026-18.562 32.026-18.431.392-19.085.392-18.954 13.987-8.105c7.712-4.444 14.248-8.104 14.641-8.104.392 0 .392 32.941 0 73.333Zm-32.288-37.909-.392 17.255-32.026 18.432-32.026 18.3v20c0 10.981.522 20 1.176 20s14.771-7.973 31.503-17.647 30.85-17.647 31.242-17.647.654 7.451.523 16.602l-.261 16.732-31.765 18.431-31.765 18.431-.653 19.216-.654 19.085-14.379 8.235-14.379 8.366-.392-73.333c-.131-40.261.13-73.464.653-73.726.654-.13 21.7-12.287 46.798-26.928 25.228-14.64 46.013-26.666 46.405-26.797s.523 7.582.392 16.993ZM86.928 173.987l13.726 7.974v75.032l17.254 9.935c9.543 5.49 17.778 9.804 18.301 9.412s.784-17.124.654-37.124c-.131-20.131-.131-36.602.13-36.602.131 0 2.484 1.438 5.229 3.138 2.615 1.699 9.151 5.49 14.379 8.496l9.412 5.491v75.032l16.34 9.151 16.209 9.15.131 17.386v17.516l-4.314-2.615c-2.222-1.568-30.719-18.039-63.006-36.732l-58.824-33.986-.392-54.249c-.13-29.934 0-54.379.392-54.379s6.928 3.529 14.38 7.974Z" stroke="#fff" stroke-width="4" mask="url(#a)"/>
  <path d="M74 273V169.5L98.5 183v75l39.5 21 1-72.5 25 14.5v75l32.5 18v30z" fill="#000"/>
  <path d="M74 131.5V161l33 19v74l24 14 1.5-72.5 38.5 21v75l25.5 14.5V202zm125.5-77L78 125l24.5 14.5 32.5-19 64.5 38 25-14.5-61.5-38 36.5-22 66 36.5L290 106z" fill="#000"/>
  <path d="M135 129.5 110.5 144l89 51.5L322 125l-24.5-14.5-32 19-66-37.5-23 14 62 38-39 22.5zM204.5 344V202l89-51.5V180L229 216.5V261l64.5-35.5V254L229 291.5v38z" fill="#000"/>
  <path d="m326 131.5-24 14V183l-65.5 37.5v29L300 214l2 44-65.5 38v28.5L326 274z" fill="#000"/>
  <path d="M74 273V169.5L98.5 183v75l39.5 21 1-72.5 25 14.5v75l32.5 18v30z" stroke="#000"/>
  <path d="M74 131.5V161l33 19v74l24 14 1.5-72.5 38.5 21v75l25.5 14.5V202zm125.5-77L78 125l24.5 14.5 32.5-19 64.5 38 25-14.5-61.5-38 36.5-22 66 36.5L290 106z" stroke="#000"/>
  <path d="M135 129.5 110.5 144l89 51.5L322 125l-24.5-14.5-32 19-66-37.5-23 14 62 38-39 22.5zM204.5 344V202l89-51.5V180L229 216.5V261l64.5-35.5V254L229 291.5v38z" stroke="#000"/>
  <path d="m326 131.5-24 14V183l-65.5 37.5v29L300 214l2 44-65.5 38v28.5L326 274z" stroke="#000"/>
  <path d="M200 48 68 124v152l132 76 132-76V124zm0 304L76 276V124l124-72 124 72v152z" fill="#fff" stroke="#fff" stroke-width="4"/>
  <path d="M74 273V169l24.5 13.5v75L138 279l1-72.5 25 14.5v75l32.5 18v30zm0-141.5V161l33 19v74l24 14 1.5-72.5 38.5 21v75l25.5 14.5V202zm125.5-77L78 125l24.5 14.5 32.5-19 64.5 38 25-14.5-61.5-38 36.5-22 66 36.5L290 106z" fill="#000" stroke="#000"/>
  <path d="M135 129.5 110.5 144l89 51.5L322 125l-24.5-14.5-32 19-66-37.5-23 14 62 38-39 22.5zM204.5 344V202l89-51.5V180L229 216.5V261l64.5-35.5V254L229 291.5v38zM326 131.5l-24 14V183l-65.5 37.5v29L300 214l2 44-65.5 38v28.5L326 274z" fill="#000" stroke="#000"/>
</svg>
